<?xml version="1.0" encoding="UTF-8" standalone="no"?>
<!-- Created with Inkscape (http://www.inkscape.org/) -->

<svg
   width="600"
   height="400"
   viewBox="0 0 158.75 105.83334"
   version="1.1"
   id="svg5"
   sodipodi:docname="grid10.svg"
   inkscape:version="1.1.1 (3bf5ae0d25, 2021-09-20)"
   xmlns:inkscape="http://www.inkscape.org/namespaces/inkscape"
   xmlns:sodipodi="http://sodipodi.sourceforge.net/DTD/sodipodi-0.dtd"
   xmlns="http://www.w3.org/2000/svg"
   xmlns:svg="http://www.w3.org/2000/svg">
  <sodipodi:namedview
     id="namedview7"
     pagecolor="#ffffff"
     bordercolor="#cccccc"
     borderopacity="1"
     inkscape:pageshadow="0"
     inkscape:pageopacity="1"
     inkscape:pagecheckerboard="0"
     inkscape:document-units="mm"
     showgrid="false"
     units="px"
     width="600px"
     inkscape:zoom="3.1108586"
     inkscape:cx="436.21398"
     inkscape:cy="215.05317"
     inkscape:window-width="3840"
     inkscape:window-height="2091"
     inkscape:window-x="0"
     inkscape:window-y="32"
     inkscape:window-maximized="0"
     inkscape:current-layer="layer1" />
  <defs
     id="defs2">
    <marker
       style="overflow:visible;"
       id="marker4206"
       refX="0.0"
       refY="0.0"
       orient="auto"
       inkscape:stockid="Arrow1Lend"
       inkscape:isstock="true">
      <path
         transform="scale(0.8) rotate(180) translate(12.5,0)"
         style="fill-rule:evenodd;fill:context-stroke;stroke:context-stroke;stroke-width:1.0pt;"
         d="M 0.0,0.0 L 5.0,-5.0 L -12.5,0.0 L 5.0,5.0 L 0.0,0.0 z "
         id="path4204" />
    </marker>
    <marker
       style="overflow:visible;"
       id="Arrow1Lend"
       refX="0.0"
       refY="0.0"
       orient="auto"
       inkscape:stockid="Arrow1Lend"
       inkscape:isstock="true">
      <path
         transform="scale(0.8) rotate(180) translate(12.5,0)"
         style="fill-rule:evenodd;fill:context-stroke;stroke:context-stroke;stroke-width:1.0pt;"
         d="M 0.0,0.0 L 5.0,-5.0 L -12.5,0.0 L 5.0,5.0 L 0.0,0.0 z "
         id="path3921" />
    </marker>
    <marker
       style="overflow:visible"
       id="marker4188"
       refX="0.0"
       refY="0.0"
       orient="auto"
       inkscape:stockid="Arrow1Lstart"
       inkscape:isstock="true">
      <path
         transform="scale(0.8) translate(12.5,0)"
         style="fill-rule:evenodd;fill:context-stroke;stroke:context-stroke;stroke-width:1.0pt"
         d="M 0.0,0.0 L 5.0,-5.0 L -12.5,0.0 L 5.0,5.0 L 0.0,0.0 z "
         id="path4186" />
    </marker>
    <marker
       style="overflow:visible"
       id="Arrow1Lstart"
       refX="0.0"
       refY="0.0"
       orient="auto"
       inkscape:stockid="Arrow1Lstart"
       inkscape:isstock="true">
      <path
         transform="scale(0.8) translate(12.5,0)"
         style="fill-rule:evenodd;fill:context-stroke;stroke:context-stroke;stroke-width:1.0pt"
         d="M 0.0,0.0 L 5.0,-5.0 L -12.5,0.0 L 5.0,5.0 L 0.0,0.0 z "
         id="path3918" />
    </marker>
    <marker
       style="overflow:visible"
       id="marker4188-3"
       refX="0"
       refY="0"
       orient="auto"
       inkscape:stockid="Arrow1Lstart"
       inkscape:isstock="true">
      <path
         transform="matrix(0.8,0,0,0.8,10,0)"
         style="fill:context-stroke;fill-rule:evenodd;stroke:context-stroke;stroke-width:1pt"
         d="M 0,0 5,-5 -12.5,0 5,5 Z"
         id="path4186-6" />
    </marker>
    <marker
       style="overflow:visible"
       id="marker4188-6"
       refX="0"
       refY="0"
       orient="auto"
       inkscape:stockid="Arrow1Lstart"
       inkscape:isstock="true">
      <path
         transform="matrix(0.8,0,0,0.8,10,0)"
         style="fill:context-stroke;fill-rule:evenodd;stroke:context-stroke;stroke-width:1pt"
         d="M 0,0 5,-5 -12.5,0 5,5 Z"
         id="path4186-2" />
    </marker>
    <marker
       style="overflow:visible"
       id="marker4188-3-9"
       refX="0"
       refY="0"
       orient="auto"
       inkscape:stockid="Arrow1Lstart"
       inkscape:isstock="true">
      <path
         transform="matrix(0.8,0,0,0.8,10,0)"
         style="fill:context-stroke;fill-rule:evenodd;stroke:context-stroke;stroke-width:1pt"
         d="M 0,0 5,-5 -12.5,0 5,5 Z"
         id="path4186-6-1" />
    </marker>
    <marker
       style="overflow:visible"
       id="marker4188-3-9-0"
       refX="0"
       refY="0"
       orient="auto"
       inkscape:stockid="Arrow1Lstart"
       inkscape:isstock="true">
      <path
         transform="matrix(0.8,0,0,0.8,10,0)"
         style="fill:context-stroke;fill-rule:evenodd;stroke:context-stroke;stroke-width:1pt"
         d="M 0,0 5,-5 -12.5,0 5,5 Z"
         id="path4186-6-1-9" />
    </marker>
    <marker
       style="overflow:visible"
       id="marker4188-6-3"
       refX="0"
       refY="0"
       orient="auto"
       inkscape:stockid="Arrow1Lstart"
       inkscape:isstock="true">
      <path
         transform="matrix(0.8,0,0,0.8,10,0)"
         style="fill:context-stroke;fill-rule:evenodd;stroke:context-stroke;stroke-width:1pt"
         d="M 0,0 5,-5 -12.5,0 5,5 Z"
         id="path4186-2-6" />
    </marker>
    <marker
       style="overflow:visible"
       id="marker4188-3-9-2"
       refX="0"
       refY="0"
       orient="auto"
       inkscape:stockid="Arrow1Lstart"
       inkscape:isstock="true">
      <path
         transform="matrix(0.8,0,0,0.8,10,0)"
         style="fill:context-stroke;fill-rule:evenodd;stroke:context-stroke;stroke-width:1pt"
         d="M 0,0 5,-5 -12.5,0 5,5 Z"
         id="path4186-6-1-6" />
    </marker>
    <marker
       style="overflow:visible"
       id="marker4188-6-1"
       refX="0"
       refY="0"
       orient="auto"
       inkscape:stockid="Arrow1Lstart"
       inkscape:isstock="true">
      <path
         transform="matrix(0.8,0,0,0.8,10,0)"
         style="fill:context-stroke;fill-rule:evenodd;stroke:context-stroke;stroke-width:1pt"
         d="M 0,0 5,-5 -12.5,0 5,5 Z"
         id="path4186-2-8" />
    </marker>
    <marker
       style="overflow:visible"
       id="marker4188-3-9-2-2"
       refX="0"
       refY="0"
       orient="auto"
       inkscape:stockid="Arrow1Lstart"
       inkscape:isstock="true">
      <path
         transform="matrix(0.8,0,0,0.8,10,0)"
         style="fill:context-stroke;fill-rule:evenodd;stroke:context-stroke;stroke-width:1pt"
         d="M 0,0 5,-5 -12.5,0 5,5 Z"
         id="path4186-6-1-6-0" />
    </marker>
    <marker
       style="overflow:visible"
       id="marker4188-6-1-2"
       refX="0"
       refY="0"
       orient="auto"
       inkscape:stockid="Arrow1Lstart"
       inkscape:isstock="true">
      <path
         transform="matrix(0.8,0,0,0.8,10,0)"
         style="fill:context-stroke;fill-rule:evenodd;stroke:context-stroke;stroke-width:1pt"
         d="M 0,0 5,-5 -12.5,0 5,5 Z"
         id="path4186-2-8-3" />
    </marker>
    <marker
       style="overflow:visible"
       id="marker4188-3-9-0-7"
       refX="0"
       refY="0"
       orient="auto"
       inkscape:stockid="Arrow1Lstart"
       inkscape:isstock="true">
      <path
         transform="matrix(0.8,0,0,0.8,10,0)"
         style="fill:context-stroke;fill-rule:evenodd;stroke:context-stroke;stroke-width:1pt"
         d="M 0,0 5,-5 -12.5,0 5,5 Z"
         id="path4186-6-1-9-5" />
    </marker>
    <marker
       style="overflow:visible"
       id="marker4188-6-3-9"
       refX="0"
       refY="0"
       orient="auto"
       inkscape:stockid="Arrow1Lstart"
       inkscape:isstock="true">
      <path
         transform="matrix(0.8,0,0,0.8,10,0)"
         style="fill:context-stroke;fill-rule:evenodd;stroke:context-stroke;stroke-width:1pt"
         d="M 0,0 5,-5 -12.5,0 5,5 Z"
         id="path4186-2-6-2" />
    </marker>
  </defs>
  <g
     inkscape:label="Layer 1"
     inkscape:groupmode="layer"
     id="layer1">
    <path
       d="M 0,0 0,105.83333 M 26.458333,0 l 0,105.83333 M 52.916667,0 l 0,105.83333 M 79.375,0 l 0,105.83333 M 105.83333,0 l 0,105.83333 M 132.29167,0 l 0,105.83333 M 158.75,0 l 0,105.83333 M 0,0 158.75,0 M 0,26.458333 l 158.75,0 M 0,52.916667 l 158.75,0 M 0,79.375 l 158.75,0 M 0,105.83333 l 158.75,0"
       style="fill:none;stroke:#000000;stroke-width:0.264583px"
       id="path2487" />
    <path
       style="fill:#00ffff;stroke:#000000;stroke-width:0.321455"
       d="m 100.61531,149.9586 v -49.34329 h 49.34329 49.34329 v 49.34329 49.34329 H 149.9586 100.61531 Z"
       id="path2526"
       transform="scale(0.26458333)" />
    <path
       style="fill:#008080;stroke:#000000;stroke-width:0.321455"
       d="m 200.58771,149.9586 v -49.34329 h 49.34329 49.34329 v 49.34329 49.34329 H 249.931 200.58771 Z"
       id="path2565"
       transform="scale(0.26458333)" />
    <path
       style="fill:#008080;stroke:#000000;stroke-width:0.321455"
       d="m 300.56011,149.9586 v -49.34329 h 49.34329 49.34329 v 49.34329 49.34329 H 349.9034 300.56011 Z"
       id="path2604"
       transform="scale(0.26458333)" />
    <path
       style="fill:#008080;stroke:#000000;stroke-width:0.321455"
       d="m 400.53251,149.9586 v -49.34329 h 49.34329 49.34329 v 49.34329 49.34329 H 449.8758 400.53251 Z"
       id="path2643"
       transform="scale(0.26458333)" />
    <path
       style="fill:#008080;stroke:#000000;stroke-width:0.321455"
       d="m 400.53251,249.931 v -49.34329 h 49.34329 49.34329 V 249.931 299.27429 H 449.8758 400.53251 Z"
       id="path2682"
       transform="scale(0.26458333)" />
    <path
       style="fill:#00ff00;stroke:#000000;stroke-width:0.321455"
       d="m 300.56011,249.931 v -49.34329 h 49.34329 49.34329 V 249.931 299.27429 H 349.9034 300.56011 Z"
       id="path2721"
       transform="scale(0.26458333)" />
    <path
       style="fill:#00ff00;stroke:#000000;stroke-width:0.321455"
       d="M 200.58771,249.931 V 200.58771 H 249.931 299.27429 V 249.931 299.27429 H 249.931 200.58771 Z"
       id="path2760"
       transform="scale(0.26458333)" />
    <path
       style="fill:#00ff00;stroke:#000000;stroke-width:0.321455"
       d="m 100.61531,249.931 v -49.34329 h 49.34329 49.34329 V 249.931 299.27429 H 149.9586 100.61531 Z"
       id="path2799"
       transform="scale(0.26458333)" />
    <path
       style="fill:#ff0000;stroke:#000000;stroke-width:0.321455"
       d="M 0.64290933,249.931 V 200.58771 H 49.9862 99.329491 V 249.931 299.27429 H 49.9862 0.64290933 Z"
       id="path3393"
       transform="scale(0.26458333)" />
    <path
       style="fill:#008080;stroke:#000000;stroke-width:0.321455"
       d="M 0.64290933,149.9586 V 100.61531 H 49.9862 99.329491 v 49.34329 49.34329 H 49.9862 0.64290933 Z"
       id="path3432"
       transform="scale(0.26458333)" />
    <path
       style="fill:#008080;stroke:#000000;stroke-width:0.321455"
       d="M 100.61531,49.9862 V 0.64290933 h 49.34329 49.34329 V 49.9862 99.329491 H 149.9586 100.61531 Z"
       id="path3471"
       transform="scale(0.26458333)" />
    <path
       style="fill:#008080;stroke:#000000;stroke-width:0.321455"
       d="M 200.58771,49.9862 V 0.64290933 H 249.931 299.27429 V 49.9862 99.329491 H 249.931 200.58771 Z"
       id="path3510"
       transform="scale(0.26458333)" />
    <path
       style="fill:#008080;stroke:#000000;stroke-width:0.321455"
       d="M 300.56011,49.9862 V 0.64290933 h 49.34329 49.34329 V 49.9862 99.329491 H 349.9034 300.56011 Z"
       id="path3549"
       transform="scale(0.26458333)" />
    <path
       style="fill:#008080;stroke:#000000;stroke-width:0.321455"
       d="M 400.53251,49.9862 V 0.64290933 h 49.34329 49.34329 V 49.9862 99.329491 H 449.8758 400.53251 Z"
       id="path3588"
       transform="scale(0.26458333)" />
    <path
       style="fill:#008080;stroke:#000000;stroke-width:0.321455"
       d="m 500.50491,149.9586 v -49.34329 h 49.34329 49.34329 v 49.34329 49.34329 H 549.8482 500.50491 Z"
       id="path3627"
       transform="scale(0.26458333)" />
    <path
       style="fill:#008080;stroke:#000000;stroke-width:0.321455"
       d="m 500.50491,249.931 v -49.34329 h 49.34329 49.34329 V 249.931 299.27429 H 549.8482 500.50491 Z"
       id="path3666"
       transform="scale(0.26458333)" />
    <path
       style="fill:#008080;stroke:#000000;stroke-width:0.321455"
       d="m 400.53251,349.9034 v -49.34329 h 49.34329 49.34329 v 49.34329 49.34329 H 449.8758 400.53251 Z"
       id="path3705"
       transform="scale(0.26458333)" />
    <path
       style="fill:#00ff00;stroke:#000000;stroke-width:0.321455"
       d="m 300.56011,349.9034 v -49.34329 h 49.34329 49.34329 v 49.34329 49.34329 H 349.9034 300.56011 Z"
       id="path3744"
       transform="scale(0.26458333)" />
    <path
       style="fill:#00ff00;stroke:#000000;stroke-width:0.321455"
       d="m 200.58771,349.9034 v -49.34329 h 49.34329 49.34329 v 49.34329 49.34329 H 249.931 200.58771 Z"
       id="path3783"
       transform="scale(0.26458333)" />
    <path
       style="fill:#00ff00;stroke:#000000;stroke-width:0.321455"
       d="m 100.61531,349.9034 v -49.34329 h 49.34329 49.34329 v 49.34329 49.34329 H 149.9586 100.61531 Z"
       id="path3822"
       transform="scale(0.26458333)" />
    <path
       style="fill:#008080;stroke:#000000;stroke-width:0.321455"
       d="M 0.64290933,49.9862 V 0.64290933 H 49.9862 99.329491 V 49.9862 99.329491 H 49.9862 0.64290933 Z"
       id="path5158"
       transform="scale(0.26458333)" />
    <path
       style="fill:#00ff00;stroke:#000000;stroke-width:0.321455"
       d="M 0.64290933,349.9034 V 300.56011 H 49.9862 99.329491 v 49.34329 49.34329 H 49.9862 0.64290933 Z"
       id="path5197"
       transform="scale(0.26458333)" />
    <path
       style="fill:#008080;stroke:#000000;stroke-width:0.321455"
       d="m 500.50491,349.9034 v -49.34329 h 49.34329 49.34329 v 49.34329 49.34329 H 549.8482 500.50491 Z"
       id="path5236"
       transform="scale(0.26458333)" />
    <path
       style="fill:#008080;stroke:#000000;stroke-width:0.321455"
       d="M 500.50491,49.9862 V 0.64290933 h 49.34329 49.34329 V 49.9862 99.329491 H 549.8482 500.50491 Z"
       id="path5275"
       transform="scale(0.26458333)" />
  </g>
</svg>
